<svg width="19" height="17" viewBox="0 0 19 17" fill="none" xmlns="http://www.w3.org/2000/svg">
<path d="M16.8143 0.921785C16.5706 0.932206 16.3435 1.00101 16.1435 1.07933C15.9562 1.15234 15.2406 1.44975 14.1134 1.91815C12.9853 2.38696 11.4915 3.00842 9.89801 3.67244C6.71105 5.00047 3.12808 6.49538 1.29287 7.26049C1.22386 7.28925 0.983062 7.36379 0.727489 7.55713C0.471916 7.75047 0.200195 8.15109 0.200195 8.59749C0.200195 8.95745 0.377229 9.31506 0.60006 9.52857C0.82289 9.74208 1.05867 9.84755 1.26064 9.9274C1.99345 10.2171 4.2662 11.1184 4.69537 11.2885C4.84641 11.7369 5.66904 14.1753 5.85981 14.773C5.98557 15.1674 6.10528 15.4144 6.26114 15.6104C6.33907 15.7084 6.42966 15.7943 6.53944 15.8616C6.58332 15.8885 6.63143 15.9092 6.68005 15.9283L6.68298 15.9297C6.69418 15.9341 6.70384 15.9415 6.7152 15.9453C6.73664 15.9526 6.75098 15.9535 6.77965 15.9595C6.89388 15.9953 7.00921 16.0177 7.11214 16.0177C7.55097 16.0177 7.81959 15.7835 7.81959 15.7835L7.8357 15.7722L10.0928 13.8802L12.8303 16.3896C12.8689 16.4424 13.2284 16.9204 14.0212 16.9204C14.4919 16.9204 14.8653 16.6915 15.105 16.4478C15.3448 16.204 15.4941 15.948 15.5576 15.626V15.6246C15.617 15.3203 18.1399 2.76975 18.1399 2.76975L18.1355 2.78678C18.2094 2.46012 18.2287 2.1559 18.1472 1.8557C18.0657 1.5555 17.851 1.26807 17.5848 1.11339C17.3186 0.958756 17.0581 0.911363 16.8143 0.921785ZM16.6737 2.44046C16.6701 2.46167 16.6764 2.45101 16.6708 2.47595L16.6693 2.48446L16.6679 2.49298C16.6679 2.49298 14.1762 14.883 14.0841 15.3549C14.0909 15.3193 14.0601 15.3901 14.0285 15.433C13.9838 15.4031 13.8923 15.3648 13.8923 15.3648L13.8776 15.3492L10.1382 11.9215L7.49442 14.1357L8.28097 11.0841C8.28097 11.0841 13.1976 6.15234 13.4939 5.86529C13.7323 5.63566 13.7824 5.55561 13.7824 5.4764C13.7824 5.3703 13.7253 5.2933 13.5979 5.2933C13.4831 5.2933 13.3288 5.4014 13.2463 5.45227C12.1716 6.11614 7.45337 8.78081 5.33838 9.97282C5.00227 9.83953 2.66721 8.91331 1.87582 8.60033C1.88181 8.59779 1.87984 8.59869 1.88607 8.59607C3.72176 7.83076 7.30324 6.33587 10.4897 5.00802C12.083 4.3441 13.5779 3.72216 14.7052 3.25373C15.8151 2.79252 16.5862 2.4751 16.6737 2.44046Z" fill="#3A7388"/>
</svg>
