<svg width="68" height="100" viewBox="0 0 68 100" fill="none" xmlns="http://www.w3.org/2000/svg">
<path d="M33.9998 22.5C40.2332 22.5 45.3332 17.4375 45.3332 11.25C45.3332 5.0625 40.2332 0 33.9998 0C27.7665 0 22.6665 5.0625 22.6665 11.25C22.6665 17.4375 27.7665 22.5 33.9998 22.5Z" fill="#3A7388"/>
<path d="M62.3333 58.9545L68 47.5H0L5.66667 58.9545H14.1667L19.8333 96.1818H11.3333V100H56.6667V96.1818H48.1667L53.8333 58.9545H62.3333Z" fill="#3A7388"/>
<path d="M56.9499 35.7187C56.6666 34.5937 56.0999 33.4687 55.2499 32.625C51.8499 29.8125 47.8833 27.8438 43.3499 26.4375C40.2333 25.875 37.1166 25.3125 33.9999 25.3125C30.8833 25.3125 27.7666 25.875 24.65 26.7188C20.1166 27.8437 16.1499 30.0937 12.7499 32.9062C11.8999 33.75 11.3333 34.875 11.05 36L9.6333 42.1875H58.5089L56.9499 35.7187Z" fill="#3A7388"/>
</svg>
