<svg width="101" height="100" viewBox="0 0 101 100" fill="none" xmlns="http://www.w3.org/2000/svg">
<path d="M56.5516 44.1989C68.8228 44.1989 78.7706 34.3046 78.7706 22.0995C78.7706 9.89426 68.8228 0 56.5516 0C44.2803 0 34.3325 9.89426 34.3325 22.0995C34.3325 34.3046 44.2803 44.1989 56.5516 44.1989Z" fill="#3A7388"/>
<path d="M32.3882 93.3701L23.2228 72.79V58.8397C23.2228 57.1822 24.1949 55.5248 25.5836 54.6961C26.4168 54.2817 26.6946 53.3148 26.278 52.6242C26.0002 52.0717 25.4447 51.6574 24.7504 51.7955H8.91932C8.0861 51.7955 7.25289 52.348 7.25289 53.3148C7.25289 54.0055 7.53063 54.5579 8.0861 54.8342C9.61366 55.6629 10.4469 57.3204 10.4469 58.9778V72.9281L1.42038 93.3701C0.309431 95.7182 1.42038 98.6187 3.92003 99.5856C4.47551 99.8618 5.16985 99.9999 5.8642 99.9999H28.0833C30.7218 99.9999 32.8048 97.9281 32.8048 95.3038C32.8048 94.6132 32.6659 93.9226 32.3882 93.3701ZM13.7797 62.0165V58.8397C13.7797 57.4585 13.502 56.0773 12.6688 54.8342H21.1398C20.4455 56.0773 20.0288 57.4585 20.0288 58.8397V62.0165H13.7797Z" fill="#3A7388"/>
<path d="M18.5017 35.0829C19.8057 35.0829 20.8628 34.0316 20.8628 32.7348C20.8628 31.438 19.8057 30.3868 18.5017 30.3868C17.1977 30.3868 16.1406 31.438 16.1406 32.7348C16.1406 34.0316 17.1977 35.0829 18.5017 35.0829Z" fill="#3A7388"/>
<path d="M22.5286 42.2652C23.8326 42.2652 24.8897 41.214 24.8897 39.9172C24.8897 38.6204 23.8326 37.5691 22.5286 37.5691C21.2246 37.5691 20.1675 38.6204 20.1675 39.9172C20.1675 41.214 21.2246 42.2652 22.5286 42.2652Z" fill="#3A7388"/>
<path d="M13.7805 40.6078C15.0846 40.6078 16.1417 39.5565 16.1417 38.2597C16.1417 36.9629 15.0846 35.9116 13.7805 35.9116C12.4765 35.9116 11.4194 36.9629 11.4194 38.2597C11.4194 39.5565 12.4765 40.6078 13.7805 40.6078Z" fill="#3A7388"/>
<path d="M15.3082 50.1382C17.0725 50.1382 18.5027 48.7159 18.5027 46.9614C18.5027 45.2069 17.0725 43.7846 15.3082 43.7846C13.544 43.7846 12.1138 45.2069 12.1138 46.9614C12.1138 48.7159 13.544 50.1382 15.3082 50.1382Z" fill="#3A7388"/>
<path d="M49.6082 81.3536L39.6097 70.8563L45.1644 63.9502V63.8121L36.6934 64.6408L36.9712 52.9005C33.6383 54.0055 30.3054 55.2486 27.1114 56.7679C26.556 57.3204 26.1394 58.1491 26.0005 58.9779V72.2375L34.8881 92.2652C35.1659 92.8177 35.3047 93.3701 35.4436 93.9226H49.6082V81.3536Z" fill="#3A7388"/>
<path d="M52.3851 80.1106V93.9227H60.7172V80.1106L70.7158 51.3813C65.9943 50.2763 61.2727 49.7238 56.5512 49.7238C51.8296 49.7238 47.1081 50.2763 42.5254 51.3813L52.3851 80.1106Z" fill="#3A7388"/>
<path d="M96.546 62.9834C90.4357 58.2873 83.4923 54.9723 76.1322 52.9005L76.4099 64.6408L67.9389 63.8121V63.9502L73.4937 70.8563L63.4951 81.3536V93.9226H100.99V71.8232C100.851 68.3701 99.3234 65.0552 96.546 62.9834Z" fill="#3A7388"/>
</svg>
