<svg width="66" height="100" viewBox="0 0 66 100" fill="none" xmlns="http://www.w3.org/2000/svg">
<path d="M30.0266 73.1307L10.4268 65.0073L8.6226 69.3653L28.2225 77.4887L30.0266 73.1307Z" fill="#3A7388"/>
<path d="M41.2504 50.4717C43.854 50.4717 45.9647 48.3598 45.9647 45.7547C45.9647 43.1496 43.854 41.0377 41.2504 41.0377C38.6468 41.0377 36.5361 43.1496 36.5361 45.7547C36.5361 48.3598 38.6468 50.4717 41.2504 50.4717Z" fill="#3A7388"/>
<path d="M41.2504 50.4717C43.854 50.4717 45.9647 48.3598 45.9647 45.7547C45.9647 43.1496 43.854 41.0377 41.2504 41.0377C38.6468 41.0377 36.5361 43.1496 36.5361 45.7547C36.5361 48.3598 38.6468 50.4717 41.2504 50.4717Z" fill="#3A7388"/>
<path d="M43.6071 90.566C52.2107 84.0802 57.75 73.8208 57.75 62.2641C57.75 50.3538 51.7393 39.7406 42.6643 33.3726L52.2107 10.3774L48.9107 9.08019L51.5036 2.71226L45.0214 0L42.4286 6.36792L39.1286 5.07075L19.2107 53.066C18.2679 55.4245 18.6214 58.1368 20.1536 60.0236L18.8571 63.0896L25.3393 65.8019L26.6357 62.7358C29.1107 62.3821 31.2321 60.8491 32.2929 58.4906L33.5893 55.1887H49.7357C50.325 57.4292 50.6786 59.7877 50.6786 62.2641C50.6786 77.8302 37.95 90.566 22.3929 90.566H0V97.6415V100H66V97.6415V90.566H43.6071ZM41.25 52.8302C37.3607 52.8302 34.1786 49.6462 34.1786 45.7547C34.1786 41.8632 37.3607 38.6792 41.25 38.6792C45.1393 38.6792 48.3214 41.8632 48.3214 45.7547C48.3214 49.6462 45.1393 52.8302 41.25 52.8302Z" fill="#3A7388"/>
</svg>
