<svg width="100" height="100" viewBox="0 0 100 100" fill="none" xmlns="http://www.w3.org/2000/svg">
<path d="M56.113 38.3716H43.9815C42.8414 38.3716 41.916 39.2729 41.916 40.3834C41.916 41.4939 42.8414 42.3952 43.9815 42.3952H56.113C57.2532 42.3952 58.1785 41.4939 58.1785 40.3834C58.1785 39.2729 57.2532 38.3716 56.113 38.3716Z" fill="#3A7388"/>
<path d="M50.0401 49.0346C52.3673 49.0319 54.2936 47.2723 54.4465 45.011H45.6475C45.792 47.2709 47.7157 49.0319 50.0401 49.0346Z" fill="#3A7388"/>
<path d="M50.0406 0C40.4236 0.0643777 32.6145 7.58718 32.4424 16.9528V17.5429C32.4892 19.6003 32.9037 21.6336 33.6679 23.5515C34.3799 25.3433 35.4153 26.997 36.7249 28.4335C38.358 30.4426 39.7447 32.6301 40.8559 34.9517C41.0872 35.3983 41.5541 35.6827 42.0677 35.6894H58.0411C58.5547 35.6827 59.0215 35.3983 59.2528 34.9517C60.3655 32.6301 61.7521 30.4426 63.3839 28.4335C64.6851 26.993 65.7151 25.3407 66.427 23.5515C67.1706 21.651 67.5851 19.6432 67.6526 17.61V17.0199C67.5107 7.62608 59.6866 0.0643777 50.0406 0ZM63.5904 17.4356C63.5339 19.0196 63.2075 20.5821 62.6264 22.0628C62.0839 23.3919 61.3059 24.6178 60.3269 25.684C58.7805 27.5107 57.4544 29.5038 56.3748 31.6255H43.7201C42.6364 29.5038 41.3062 27.5094 39.7543 25.684C38.7794 24.6164 38.0069 23.3906 37.4685 22.0628C36.8874 20.5821 36.561 19.0196 36.5046 17.4356V16.9528C36.6313 9.74785 42.6419 3.95923 50.0406 3.91631C57.4421 3.95923 63.4554 9.74517 63.5904 16.9528V17.4356Z" fill="#3A7388"/>
<path d="M43.4033 21.3119L50.6877 7.45728V15.4777L58.2475 14.0158L50.6877 27.5753V19.7025L43.4033 21.3119Z" fill="#3A7388"/>
<path d="M89.2857 57.7923C89.2857 63.5555 84.4895 68.2269 78.5725 68.2269C72.6555 68.2269 67.8594 63.5555 67.8594 57.7923C67.8594 52.0292 72.6555 47.3578 78.5725 47.3578C84.4895 47.3578 89.2857 52.0292 89.2857 57.7923Z" fill="#3A7388"/>
<path d="M32.1392 57.7923C32.1392 63.5555 27.343 68.2269 21.426 68.2269C15.509 68.2269 10.7129 63.5555 10.7129 57.7923C10.7129 52.0292 15.509 47.3578 21.426 47.3578C27.343 47.3578 32.1392 52.0292 32.1392 57.7923Z" fill="#3A7388"/>
<path d="M97.8506 77.2664C94.7647 74.926 91.1941 73.2642 87.3853 72.3978C84.5184 71.5837 81.5564 71.133 78.5724 71.0566C75.5802 71.0499 72.6072 71.5032 69.7595 72.3978C66.9077 73.1381 64.18 74.2768 61.6628 75.7776C61.4975 75.9654 61.346 76.1532 61.167 76.3275C65.1713 77.3777 68.9182 79.2017 72.1831 81.6923C74.7595 83.5244 76.2632 86.459 76.2177 89.5652V91.9525H99.9987V81.4509C100.04 79.7959 99.2359 78.228 97.8506 77.2664Z" fill="#3A7388"/>
<path d="M23.8085 89.5658C23.8112 86.5481 25.2324 83.6967 27.6642 81.827L27.8294 81.6929L28.0084 81.5722C31.3105 79.2841 34.9637 77.5191 38.8317 76.3415C38.5563 76.0599 38.3085 75.7648 38.0468 75.4697C35.6274 74.0896 33.0166 73.0556 30.2942 72.3984C27.4287 71.5829 24.4667 71.1323 21.4813 71.0572C18.4891 71.0518 15.5162 71.5038 12.6685 72.3984C8.91203 73.4083 5.37031 75.0553 2.20318 77.2669C0.846828 78.2568 0.0344253 79.8005 0 81.4515V91.9531H23.8085V89.5658Z" fill="#3A7388"/>
<path d="M28.5732 100V89.5657C28.5801 87.9241 29.3747 86.3804 30.7214 85.3946C33.8816 83.1735 37.4274 81.5252 41.1866 80.526C44.0329 79.6261 47.0073 79.1727 49.9995 79.1848C52.9849 79.2532 55.9483 79.7039 58.8124 80.526C62.6281 81.3844 66.2056 83.0461 69.2915 85.3946C70.6712 86.3522 71.4713 87.916 71.4258 89.5657V100H28.5732Z" fill="#3A7388"/>
<path d="M60.7124 65.9064C60.7124 71.6695 55.9163 76.3409 49.9992 76.3409C44.0822 76.3409 39.2861 71.6695 39.2861 65.9064C39.2861 60.1432 44.0822 55.4718 49.9992 55.4718C55.9163 55.4718 60.7124 60.1432 60.7124 65.9064Z" fill="#3A7388"/>
</svg>
